<?xml version="1.0" standalone="no"?>
<!DOCTYPE svg PUBLIC "-//W3C//DTD SVG 20010904//EN"
 "http://www.w3.org/TR/2001/REC-SVG-20010904/DTD/svg10.dtd">
<svg version="1.0" xmlns="http://www.w3.org/2000/svg"
 width="500.000000pt" height="500.000000pt" viewBox="0 0 500.000000 500.000000"
 preserveAspectRatio="xMidYMid meet">
<metadata>
Created by potrace 1.16, written by Peter Selinger 2001-2019
</metadata>
<g transform="translate(0.000000,500.000000) scale(0.100000,-0.100000)"
fill="#000000" stroke="none">
<path d="M0 2500 l0 -2500 2500 0 2500 0 0 2500 0 2500 -2500 0 -2500 0 0
-2500z m3370 995 c0 -38 4 -47 24 -56 41 -19 66 3 66 58 0 45 0 45 23 31 12
-8 26 -29 31 -46 10 -30 11 -31 55 -25 25 3 50 10 56 14 5 5 27 9 48 9 29 0
40 -4 44 -19 2 -10 21 -26 40 -35 33 -16 37 -16 53 -1 15 14 22 14 42 4 44
-23 47 -27 35 -64 -14 -48 10 -76 58 -68 31 5 35 3 48 -28 15 -33 14 -35 -12
-56 -38 -31 -32 -79 10 -88 31 -7 36 -25 19 -69 -7 -20 -16 -26 -40 -26 -41 0
-62 -40 -37 -68 23 -25 22 -34 -12 -66 -27 -26 -30 -27 -53 -12 -22 14 -26 14
-46 0 -16 -11 -20 -21 -16 -42 5 -26 2 -29 -34 -40 -52 -16 -62 -15 -62 4 0
11 -5 14 -16 10 -9 -3 -48 -6 -88 -6 l-71 0 -19 -35 c-11 -19 -25 -35 -33 -35
-7 0 -12 3 -12 8 1 4 1 24 0 44 -1 31 -5 39 -25 44 -48 12 -66 -3 -66 -52 0
-48 -8 -54 -33 -26 -37 40 -28 114 17 151 13 11 16 37 16 131 l0 117 -40 6
c-82 11 -113 52 -123 162 l-5 60 20 -42 c11 -24 24 -43 28 -43 5 0 11 -13 15
-29 6 -30 44 -74 77 -92 16 -8 18 -5 18 25 0 19 -6 41 -12 48 -15 15 -20 48
-8 48 5 0 11 -6 13 -12 3 -7 6 2 6 20 1 23 -7 40 -25 57 -36 34 -43 98 -15
143 28 44 41 40 41 -13z m-985 -35 c10 -11 23 -20 28 -20 6 0 2 9 -8 20 -18
19 -17 20 7 20 13 0 48 -7 77 -16 44 -13 55 -21 67 -50 15 -36 30 -47 19 -14
-9 27 7 25 44 -6 53 -44 73 -79 61 -108 -6 -16 -6 -27 0 -31 6 -4 10 1 10 9 0
33 19 14 39 -39 27 -72 26 -86 -4 -115 -29 -27 -25 -42 5 -15 19 18 20 17 20
-2 0 -10 -9 -46 -20 -79 -17 -50 -26 -62 -58 -76 -32 -15 -33 -17 -10 -14 24
3 26 1 17 -16 -6 -11 -29 -37 -51 -59 -37 -35 -44 -38 -82 -34 -36 5 -38 4
-16 -5 l25 -11 -25 -14 c-14 -8 -46 -19 -72 -25 -43 -11 -50 -10 -77 9 -38 27
-49 27 -25 0 l19 -22 -43 7 c-77 12 -120 35 -127 67 -4 16 -10 29 -15 29 -4 0
-6 -9 -3 -20 8 -32 -9 -24 -61 29 -43 44 -48 53 -44 85 2 20 0 36 -4 36 -4 0
-8 -7 -8 -15 0 -31 -19 -13 -34 32 -22 64 -20 102 6 130 22 23 12 33 -10 11
-18 -18 -14 48 6 101 14 37 23 47 52 55 30 8 32 10 13 14 -34 5 -28 20 23 70
43 41 49 44 86 38 26 -4 37 -3 33 4 -3 5 -13 10 -21 10 -28 0 -3 20 44 34 66
20 96 19 117 -4z m-565 -16 c103 -35 180 -139 180 -244 0 -55 -30 -128 -70
-169 l-40 -41 58 -88 c32 -48 62 -93 66 -99 5 -10 -12 -13 -77 -13 l-84 0 -7
93 c-10 137 -12 143 -55 156 -41 12 -61 42 -61 91 l0 30 -74 0 -74 0 -21 -62
c-12 -35 -29 -118 -38 -185 l-17 -123 -73 0 -73 0 0 341 0 342 203 -6 c159 -4
214 -9 257 -23z m1239 9 c12 -11 42 -81 76 -176 31 -87 78 -217 106 -290 27
-72 49 -143 49 -159 0 -53 -60 -85 -110 -58 -10 5 -30 43 -45 84 l-27 74 -52
6 c-41 6 -148 0 -152 -8 0 0 -14 -35 -30 -76 -23 -60 -34 -76 -56 -84 -37 -13
-80 3 -95 35 -14 28 3 83 135 450 66 183 76 205 94 212 29 12 87 6 107 -10z
m-1303 -514 c-3 -17 -6 -40 -6 -51 0 -25 -44 -68 -70 -68 -30 0 -25 33 11 75
18 20 29 39 25 42 -13 13 -68 -53 -79 -95 -11 -42 -35 -54 -29 -14 2 12 -2 31
-8 43 -15 27 2 72 33 87 12 6 46 11 76 11 l54 1 -7 -31z m-620 -23 c122 -32
206 -102 244 -202 18 -48 21 -74 18 -139 -5 -97 -37 -165 -99 -217 l-42 -35
40 -54 c53 -72 143 -207 143 -214 0 -3 -80 -5 -177 -5 l-178 0 -26 41 -26 40
49 97 c146 290 105 531 -106 629 -51 23 -74 28 -141 27 -93 0 -150 -21 -214
-79 l-41 -37 0 81 0 81 253 0 c181 0 266 -4 303 -14z m3177 -1 c31 -8 74 -26
95 -39 135 -85 24 -293 -123 -232 -21 9 -49 27 -62 40 -32 32 -87 42 -119 21
-50 -33 -30 -45 136 -80 149 -31 197 -52 248 -110 108 -123 69 -321 -82 -409
-127 -74 -367 -74 -493 0 -154 90 -126 284 40 284 61 0 82 -11 132 -67 34 -38
47 -46 85 -50 36 -4 51 -1 73 17 62 49 27 82 -131 120 -144 36 -166 43 -215
77 -61 42 -92 105 -92 183 1 131 83 218 240 253 48 11 215 6 268 -8z m-3360
-109 c94 -46 149 -136 149 -247 0 -146 -97 -251 -245 -266 -100 -10 -217 58
-261 151 -14 30 -17 57 -14 130 3 81 6 98 30 133 32 49 83 90 135 109 50 19
157 13 206 -10z m1315 -146 l32 -20 0 -130 c0 -71 -3 -130 -7 -130 -9 1 -138
236 -138 251 0 11 55 49 70 49 6 0 25 -9 43 -20z m496 -1 l36 -21 0 -129 c0
-71 -4 -129 -8 -129 -10 0 -142 238 -142 255 0 10 53 43 72 44 4 1 23 -8 42
-20z m524 5 c26 -18 28 -50 5 -76 -13 -15 -32 -18 -110 -18 l-94 0 3 -52 3
-53 70 -3 c78 -3 95 -13 95 -52 0 -39 -17 -49 -95 -52 l-70 -3 -3 -57 -3 -58
83 0 c100 0 132 -13 136 -56 5 -51 -12 -57 -165 -57 -186 -1 -173 -21 -173
279 0 294 -12 274 168 274 99 0 132 -3 150 -16z m395 4 c82 -25 135 -115 118
-204 -7 -38 -39 -104 -51 -104 -3 -1 -16 -10 -29 -20 l-23 -20 58 -87 c33 -49
61 -91 62 -95 2 -5 -32 -8 -75 -8 l-78 0 -84 128 c-46 70 -84 132 -85 137 -1
6 19 13 44 16 25 4 59 11 75 17 17 6 42 14 58 17 15 3 27 10 27 16 0 6 -14 7
-36 3 -47 -9 -39 8 19 38 29 15 37 23 25 26 -9 2 -30 -4 -47 -13 -44 -22 -38
-10 10 22 48 32 35 44 -15 14 -49 -31 -55 -26 -16 14 44 45 24 45 -31 0 -52
-45 -73 -42 -77 8 -2 20 -7 37 -11 37 -5 0 -17 -30 -27 -67 -12 -42 -26 -69
-35 -71 -10 -2 -39 33 -82 98 -37 55 -67 102 -67 105 0 11 334 5 373 -7z
m-2143 -180 c0 -134 3 -157 20 -185 41 -68 112 -88 185 -53 72 35 85 71 85
248 l0 142 61 0 61 0 -4 -172 c-3 -154 -5 -177 -25 -213 -47 -88 -137 -145
-230 -145 -116 0 -196 46 -245 139 -27 52 -28 57 -28 222 l0 169 60 0 60 0 0
-152z m528 -73 c1 -88 0 -165 -2 -172 -4 -10 -13 -9 -41 4 l-35 17 0 143 0
142 28 15 c15 8 32 14 37 12 6 -1 11 -67 13 -161z m367 148 l35 -17 0 -138 0
-138 -39 -19 c-21 -11 -41 -17 -45 -14 -8 9 -8 328 1 336 9 9 7 9 48 -10z
m125 -158 c0 -191 2 -185 -57 -147 -22 14 -23 20 -23 151 l0 136 28 17 c52 33
52 32 52 -157z m370 160 l30 -16 0 -139 0 -140 -32 -20 c-17 -10 -35 -17 -40
-14 -12 8 -10 344 2 344 6 0 24 -7 40 -15z m-698 -253 c35 -64 65 -120 67
-125 3 -9 -19 -28 -56 -48 -19 -10 -27 -8 -58 15 l-35 27 0 130 c0 79 4 128 9
124 6 -3 38 -58 73 -123z m478 31 c29 -54 61 -112 72 -130 l19 -32 -39 -26
-39 -26 -37 22 -36 21 0 134 c0 74 2 134 4 134 2 0 28 -44 56 -97z m794 -72
c100 -144 99 -141 40 -141 l-49 0 -77 117 c-42 64 -75 120 -72 125 3 4 23 8
44 8 38 0 40 -2 114 -109z m456 -411 c8 -14 17 -19 30 -15 10 3 25 -1 34 -10
18 -19 21 -35 6 -35 -5 0 -10 7 -10 15 0 8 -7 15 -16 15 -14 0 -14 -1 0 -16 9
-8 14 -19 11 -24 -3 -5 5 -10 17 -12 25 -3 37 -43 19 -61 -6 -6 -37 -11 -68
-12 -32 -1 -68 -5 -81 -9 -33 -11 -49 7 -57 66 -8 57 3 72 44 62 21 -5 23 -3
12 10 -11 13 -11 19 -1 31 18 21 47 19 60 -5z"/>
<path d="M3517 3425 c-11 -28 -9 -30 37 -27 150 12 286 -113 286 -263 0 -141
-115 -257 -257 -259 -48 -1 -62 -4 -58 -14 3 -8 5 -18 5 -23 0 -15 93 -10 144
7 26 9 70 37 100 65 199 182 84 505 -187 526 -54 5 -65 3 -70 -12z"/>
<path d="M3482 3371 c-21 -13 -22 -411 -2 -411 5 0 6 -10 3 -21 -14 -51 78
-65 162 -25 126 59 178 199 121 321 -25 55 -81 110 -132 131 -36 15 -131 19
-152 5z"/>
<path d="M2320 3341 c-76 -25 -118 -61 -149 -131 -69 -152 43 -323 210 -323
132 0 229 99 229 235 0 119 -91 214 -214 224 -28 2 -62 0 -76 -5z m173 -51
c105 -72 126 -214 44 -307 -113 -129 -320 -76 -358 93 -10 43 -9 59 6 103 17
53 63 105 112 128 46 21 154 12 196 -17z"/>
<path d="M2298 3270 c-112 -61 -119 -235 -12 -300 117 -73 266 7 267 143 1 63
-20 106 -69 143 -48 37 -132 43 -186 14z"/>
<path d="M1552 3278 c-16 -16 -15 -58 2 -58 7 0 19 -7 26 -15 9 -11 33 -15 86
-15 71 0 74 -1 88 -28 20 -39 41 -54 68 -50 23 4 23 5 -4 16 -25 10 -58 57
-58 82 0 5 18 10 40 10 39 0 40 1 40 35 l0 35 -138 0 c-94 0 -142 -4 -150 -12z"/>
<path d="M676 2598 c-9 -12 -16 -28 -16 -34 0 -6 -9 -23 -20 -37 -24 -30 -27
-85 -5 -93 8 -4 15 -14 15 -24 0 -20 33 -36 50 -25 5 3 10 15 10 26 0 17 7 19
58 19 50 0 59 -3 67 -22 6 -13 19 -23 29 -23 41 0 75 117 42 144 -8 7 -17 24
-21 39 -12 47 -22 52 -111 52 -74 0 -84 -2 -98 -22z"/>
</g>
</svg>
